<?xml version="1.0" encoding="utf-8"?>
<!-- Generator: Adobe Illustrator 22.0.1, SVG Export Plug-In . SVG Version: 6.00 Build 0)  -->
<svg version="1.1" id="Logo" xmlns="http://www.w3.org/2000/svg" xmlns:xlink="http://www.w3.org/1999/xlink" x="0px" y="0px"
	 viewBox="0 0 500 500" style="enable-background:new 0 0 500 500;" xml:space="preserve">
<style type="text/css">
	.st0{fill:#417BBF;}
	.st1{fill:#1F2B5D;stroke:#E3E3E3;stroke-width:5;}
	.st2{fill:#1F419A;stroke:#E3E3E3;stroke-width:5;stroke-miterlimit:10;}
</style>
<g id="Circle">
	<path class="st0" d="M420.5,381.4c-0.1-0.1-0.3-0.2-0.4-0.2L464,270.5c3.4,0.6,6.8-0.9,8.6-3.9c2.3-3.9,1-9-2.9-11.3
		c-1.6-1-3.6-1.3-5.5-1l-29-113.2c1.6-0.7,2.8-1.8,3.7-3.3c2.3-3.9,1-9-2.9-11.3c-3.2-1.9-7.3-1.4-9.9,1.2l-91.9-76.1
		c2-3.8,0.7-8.7-3.1-10.9c-3.9-2.3-9-1-11.3,2.9c-0.7,1.1-1,2.4-1.1,3.7l-116.3-7.4c-0.5-2.3-1.9-4.3-3.8-5.4c-3.9-2.3-9-1-11.3,2.9
		c-1.4,2.4-1.5,5.3-0.3,7.8l-97.3,61.6c-0.7-0.9-1.5-1.6-2.4-2.2c-3.9-2.3-9-1-11.3,2.9c-2.3,3.9-1,9,2.9,11.3
		c0.2,0.1,0.3,0.2,0.5,0.2l-42,105.8c-3.7-1.3-7.9,0.1-9.9,3.5c-2.3,3.9-1,9,2.9,11.3c1.1,0.6,2.3,1,3.6,1.1l29.8,116.6
		c-1.4,0.7-2.6,1.8-3.4,3.1c-2.3,3.9-1,9,2.9,11.3c2.8,1.7,6.3,1.5,8.9-0.4l91.8,76.1c-0.1,0.1-0.1,0.2-0.2,0.3
		c-2.3,3.9-1,9,2.9,11.3c3.9,2.3,9,1,11.3-2.9c0.6-1.1,1-2.3,1.1-3.6l118.2,7.5c0.5,2.3,1.9,4.3,3.8,5.4c3.9,2.3,9,1,11.3-2.9
		c1.4-2.4,1.5-5.4,0.2-7.9l96.9-61.4c0.7,0.9,1.5,1.7,2.4,2.2c3.9,2.3,9,1,11.3-2.9C425.7,388.8,424.4,383.7,420.5,381.4z
		 M297.7,455.5l-28.4-11.4c0.2-0.9,0.3-1.8,0.2-2.7l42.1-9c0.5,1.7,1.6,3.1,3.1,3.9l-6.6,14.4c-3.7-1.3-7.8,0.1-9.9,3.5
		C298.1,454.7,297.9,455.1,297.7,455.5z M149,423.4c0.5-0.1,1-0.4,1.5-0.6l10.1,15.1L149,423.4z M85.6,119.5l7.5,17.8l-35.8,60.3
		c-1.3-0.4-2.7-0.5-4.1-0.1c-4,1-6.4,5.1-5.4,9.1c0.4,1.4,1.1,2.7,2.2,3.7l-11.2,15.2c-0.1-0.1-0.1-0.1-0.2-0.1c0,0,0,0,0,0
		l42-105.8C82.3,120,84,120,85.6,119.5z M201.8,45.1l17.3,6.4c-0.2,0.9-0.3,1.8-0.2,2.7l-34.8,7.4c-0.5-1.7-1.6-3.1-3.1-3.9
		c-3.4-2-7.8-0.9-9.8,2.5c-1.7,2.9-1.1,6.8,1.5,9l-6.6,9.4l-41,17.7c-1.5-3.2-5.1-4.9-8.6-4c-4,1-6.4,5-5.4,9l-20.5,7.1
		c0-0.1-0.1-0.2-0.2-0.3l97.3-61.6c0.7,0.9,1.5,1.7,2.4,2.3c3.9,2.3,9,1,11.3-2.9C201.6,45.5,201.7,45.3,201.8,45.1z M105.2,155
		c-1-0.1-1.9,0-2.9,0.3l-7.5-17.8l19-32c0.7,0.5,1.4,0.9,2.2,1.2L105.2,155z M233.3,55.8l7.7,1.7c-0.4,2.1,0.2,4.2,1.5,5.8l-0.2,1
		l-9.7-7.1C232.9,56.8,233.1,56.3,233.3,55.8z M265.8,81.6l-12.5-18.1c0.3-0.4,0.6-0.7,0.8-1.1l28.2,26.8c-1.3,0.4-2.4,1.1-3.3,2.1
		L265.8,81.6z M438,203.1l-10.7,0.5l-2.7-28.4c0.7-0.2,1.4-0.6,2-1l12.8,26.3c-0.4,0.3-0.7,0.7-1,1.1
		C438.3,202,438.1,202.5,438,203.1z M119.4,290.7l-35.3-20.5c1.6-3.3,0.4-7.3-2.8-9.2c-0.2-0.1-0.5-0.3-0.7-0.4l23.9-45.5
		c0,0,0.1,0,0.1,0.1c1,0.6,2.1,0.8,3.3,0.7l15.2,70.7c-1.2,0.4-2.3,1.3-3,2.4C119.8,289.6,119.5,290.2,119.4,290.7z M358.3,105.9
		l10.7,3.9l34.1,38.7l-21.4,1.8c-0.4-1.2-1.3-2.3-2.4-2.9c-0.3-0.2-0.6-0.3-0.9-0.4c-0.3-2.2-1.5-4.2-3.4-5.3
		c-0.8-0.5-1.6-0.8-2.6-0.9l-16-32.7c0.7-0.5,1.3-1.1,1.7-1.8C358.2,106.1,358.3,106,358.3,105.9z M439.8,247.3l-8.6-1.7l-0.8-8.8
		l10.7,5.7c-0.2,0.2-0.3,0.4-0.5,0.7C440,244.3,439.7,245.8,439.8,247.3z M361.1,398.4l-93.4-17.3c0.1-1.7-0.6-3.4-1.9-4.5
		l34.3-51.8c1.7,0.9,3.7,0.8,5.4-0.2l56.9,71.7c-0.3,0.3-0.6,0.7-0.8,1C361.4,397.6,361.2,398,361.1,398.4z M294.6,131.3l-58.2-4.1
		c-0.1-1.9-1.1-3.5-2.7-4.5c-0.3-0.2-0.7-0.4-1.1-0.5l10.7-55.3l21.7,15.9l31.1,44.9c-0.3,0.3-0.5,0.6-0.6,0.8
		C294.9,129.3,294.6,130.3,294.6,131.3z M268.4,85.3l9.8,7.2c-1.2,2-1.3,4.3-0.5,6.2L268.4,85.3z M291.2,97.7l18.2,17.3
		c-0.1,0.1-0.1,0.2-0.2,0.3c-1.1,1.9-0.8,4.3,0.7,5.9l-6,6.2c-0.3-0.3-0.7-0.6-1-0.8c-1.9-1.1-4.2-1-6,0.2l-17.5-25.3
		c0.3,0.3,0.7,0.6,1.1,0.8c3.4,2,7.8,0.9,9.8-2.5C290.8,99.1,291.1,98.4,291.2,97.7z M427.3,287.7l-46-48.8c0.2-0.2,0.4-0.5,0.5-0.7
		c0.2-0.3,0.3-0.7,0.5-1.1l19.2,3.9c0.6,1.1,1.5,1.9,2.5,2.5c2.5,1.5,5.5,1.3,7.9-0.4l18,3.6l3.3,35.6c-0.2,0-0.4,0.1-0.6,0.1l0,0
		C430.1,283.1,428,285.1,427.3,287.7z M133.7,186.9c0,0.6,0.1,1.3,0.4,1.9l-22.8,17.7c-0.3-0.3-0.7-0.6-1.1-0.9
		c-0.2-0.1-0.4-0.2-0.6-0.3l9.1-29.6L133.7,186.9z M176.4,119.8l29.6,70.5c-0.8,0.5-1.5,1.2-2,2c-0.3,0.5-0.5,1-0.6,1.6l-62.7-6.6
		c0-1.1-0.5-2.2-1.4-2.8l33.7-64.7C174.1,120.1,175.3,120.1,176.4,119.8z M311.1,122c2,1.1,4.5,0.7,6-1l36.7,22.6
		c-0.1,0.1-0.1,0.3-0.2,0.4l-48.2-11.1c0.4-1.5,0.2-3.2-0.6-4.5L311.1,122z M180.9,236.8l-36.4-4.5c0-2-1-3.8-2.7-4.8
		c-0.7-0.4-1.5-0.7-2.4-0.7l-1.7-36.2c0.3-0.1,0.6-0.1,0.9-0.3l43.5,44.4c-0.3,0.3-0.5,0.6-0.7,0.9
		C181.2,236,181.1,236.4,180.9,236.8z M140.4,188.6l62.9,6.6c0,1.8,0.9,3.5,2.4,4.5l-17.4,33.6l0,0.1c-1.6-0.6-3.5-0.4-5,0.5
		l-43.4-44.4c0.2-0.2,0.3-0.4,0.4-0.5C140.2,188.8,140.3,188.7,140.4,188.6z M370.3,204.9l-98.4-24.2c0-0.8-0.1-1.6-0.3-2.3
		l82.3-29.9c1.1,2.1,3.4,3.3,5.8,3l13.9,50.3c-1.2,0.4-2.3,1.3-3,2.4C370.5,204.4,370.4,204.6,370.3,204.9z M211.8,199.8l21.9,26.9
		l31.4,38.6c-0.4,0.3-0.7,0.7-1,1.1l-72.3-27c0.3-2.1-0.6-4.2-2.3-5.4l17.5-33.7C208.5,200.9,210.3,200.7,211.8,199.8z M310.2,249.4
		l-37.1,16.9c-0.5-0.6-1-1.1-1.7-1.5c-0.6-0.4-1.3-0.6-2-0.7l-3-78.2c0.8,0,1.5-0.2,2.3-0.5l42.6,57.9l0.3,0.5
		c-0.4,0.4-0.7,0.8-1,1.2C309.9,246.3,309.8,247.9,310.2,249.4z M265.1,185.8l3,78.3c-0.6,0.1-1.2,0.2-1.8,0.5l-53.4-65.7
		c0.3-0.3,0.6-0.7,0.8-1c0.6-1.1,0.9-2.3,0.7-3.6l46.7-12.5C261.5,183.8,263,185.3,265.1,185.8z M300.1,314.8l-6.2-9.3l-21.2-32.1
		c0.3-0.3,0.5-0.6,0.7-0.9c0.9-1.5,1-3.3,0.4-4.9l37-16.9c0.6,1,1.6,1.8,2.7,2.3l-11,61.3C301.6,314.2,300.8,314.4,300.1,314.8z
		 M270.9,177.2c-0.4-0.6-0.9-1.1-1.5-1.5l28.5-39.3c2.5,1.1,5.6,0.1,7-2.3l48.4,11.2c-0.1,0.6,0,1.2,0.1,1.8L270.9,177.2z
		 M264,272.7c0.5,0.7,1.1,1.3,1.8,1.7c1.8,1.1,4.1,1,5.9-0.1l27.3,41.2c-0.5,0.4-0.9,0.9-1.2,1.4c-0.4,0.6-0.6,1.3-0.7,2.1l-53-0.8
		l-53.7-0.8c-0.1-0.5-0.2-1.1-0.4-1.6L264,272.7z M305.4,314.9c-0.4-0.2-0.7-0.4-1.2-0.5l11-61.1c1.4,0.1,2.7-0.4,3.8-1.3l53.7,49.4
		c-0.1,0.1-0.1,0.2-0.2,0.3c-0.5,0.9-0.8,1.9-0.8,3l-64,13C307.3,316.5,306.5,315.6,305.4,314.9z M319.7,244.1
		c-1.8-2.1-4.7-2.4-6.9-1.2l-42.9-58.3c0.5-0.4,0.9-0.9,1.2-1.4c0.2-0.4,0.4-0.8,0.5-1.1l98.3,24.2c-0.2,1.2,0.1,2.4,0.6,3.4
		L319.7,244.1z M233.3,132.4l29.1,44c-0.4,0.4-0.7,0.7-0.9,1.1c-0.5,0.9-0.8,1.9-0.8,2.9L214,193c-0.5-1.1-1.3-2.1-2.3-2.7
		c-0.2-0.1-0.3-0.2-0.5-0.2l18.6-57.1C231,133.2,232.2,133,233.3,132.4z M112.2,207.6l22.8-17.7c0.4,0.4,0.9,0.6,1.3,0.7l1.6,34.5
		l0.1,1.8c-1.2,0.2-2.3,0.8-3.2,1.8L112.3,213C113.2,211.3,113.2,209.3,112.2,207.6z M191,241.4c0.1-0.2,0.2-0.4,0.3-0.7l72.1,26.9
		c-0.5,1.2-0.5,2.6,0,3.8l-74.1,43.1c-0.9-1.2-2.2-1.9-3.6-2.1l1.4-68.3C188.7,243.8,190.2,242.9,191,241.4z M373.8,300.3L320.1,251
		c0.1-0.1,0.2-0.2,0.3-0.4c0.6-1,0.8-2.1,0.7-3.3l50.7-10.2c0.7,2,2.4,3.5,4.6,3.7l0.3,58.2C375.6,299.2,374.6,299.6,373.8,300.3z
		 M296.8,135.7l-28.6,39.3c-1.5-0.5-3.2-0.4-4.7,0.5l-29-43.9c0.5-0.4,0.9-0.9,1.2-1.4c0.3-0.6,0.6-1.1,0.7-1.8l58.4,4.1
		C295.1,133.9,295.8,135,296.8,135.7z M108.3,168l9.2,6.9l-9.2,30.1c-0.2,0-0.4-0.1-0.7-0.1l-3.3-35.8
		C105.8,169.1,107.2,168.7,108.3,168z M372.2,232.5c-0.6,1-0.8,2.1-0.7,3.3L320.8,246c-0.1-0.2-0.2-0.5-0.3-0.7l50.9-34.4
		c1.1,1.2,2.5,1.8,4,1.8l0.8,17.2C374.5,230.1,373.1,231.1,372.2,232.5z M375,201.5l-14-50.4c1.1-0.5,2-1.3,2.7-2.3
		c0.1-0.2,0.2-0.4,0.3-0.6l0.3,0.1c0.2,2.3,1.5,4.4,3.5,5.6c1.2,0.7,2.5,1,3.9,1c0.9,1.6,2.6,2.7,4.5,2.8l-0.9,43.8
		C375.1,201.5,375.1,201.5,375,201.5z M365.3,144.1c-0.4,0.6-0.6,1.3-0.8,2c0.1-2-1-3.9-2.7-4.9c-0.9-0.5-1.9-0.8-2.9-0.8l-4.1-31.6
		c0.1,0,0.3-0.1,0.4-0.1l15.7,32C368.6,140.8,366.4,142.1,365.3,144.1z M353.4,108.9l4.1,31.6c-1.2,0.3-2.2,1-2.9,1.9l-36.7-22.6
		c0.4-0.8,0.6-1.7,0.5-2.6l30.1-11.3C349.4,107.8,351.3,109,353.4,108.9z M138.6,128c0.7-1.1,0.9-2.4,0.7-3.7l30.4-7.8
		c0.4,1.1,1.1,1.9,2,2.6L138,183.8c-0.2-0.1-0.4-0.1-0.7-0.1l-2.8-53C136.3,130.5,137.8,129.5,138.6,128z M134.2,185.4
		C134.2,185.4,134.2,185.4,134.2,185.4l-15-11.1l13.4-43.7c0.2,0,0.4,0.1,0.6,0.1l2.8,53.2C135.2,184.2,134.6,184.7,134.2,185.4z
		 M109.5,167c0.4-0.4,0.8-0.9,1-1.3c1.7-2.8,1.2-6.4-1.1-8.7l21.7-26.9c0.1,0,0.1,0.1,0.2,0.1L118,173.4L109.5,167z M111.5,214.2
		l22.5,15.6c-1.4,2.6-0.5,5.9,2.1,7.4c0.3,0.2,0.6,0.3,0.9,0.4l-11.6,48.9c-0.4,0-0.7,0-1.1,0l-15.2-70.7
		C110.1,215.4,110.9,214.9,111.5,214.2z M143.8,235.2c0.3-0.4,0.5-0.9,0.6-1.5l36.3,4.5c-0.1,1.2,0.2,2.4,0.9,3.4l-52.9,46.2
		c-0.3-0.3-0.6-0.5-0.9-0.6c-0.3-0.2-0.6-0.3-0.9-0.4l11.6-48.9C140.6,238.1,142.7,237.1,143.8,235.2z M182.4,242.6
		c0.3,0.3,0.6,0.6,1,0.7c0.7,0.4,1.4,0.6,2.3,0.7l-1.4,68.3c-1.8,0.2-3.3,1.2-4.2,2.7c0,0,0,0,0,0l-49.8-21.6
		c0.5-1.6,0.2-3.3-0.7-4.7L182.4,242.6z M189.5,320.9c0,0,0-0.1,0.1-0.1c0.4-0.6,0.6-1.3,0.7-2.1l106.7,1.6c0.2,1.4,0.8,2.7,1.9,3.6
		l-34.3,51.8c-2.1-1.1-4.6-0.7-6.3,1L189.5,320.9z M413.1,241.9c0.3-0.3,0.5-0.6,0.7-0.9c2-3.4,0.9-7.8-2.5-9.8
		c-3.4-2-7.8-0.9-9.8,2.5c-1,1.7-1.3,3.8-0.7,5.7l-18.2-3.7c0.2-2.1-0.9-4.1-2.7-5.2c-0.7-0.4-1.5-0.7-2.4-0.7l-0.8-17.3
		c1.4-0.3,2.6-1.2,3.4-2.4l48.7,25.8l0.9,9.4L413.1,241.9z M318,115.9c-0.4-1-1.1-1.8-2-2.4c-1.8-1-4-0.9-5.6,0.4l-16.9-16l54.4,6.5
		c0,0.1,0,0.1,0,0.2L318,115.9z M228,132.3c0.2,0.1,0.3,0.2,0.5,0.2l-18.6,57.1c-0.9-0.2-1.7-0.1-2.5,0.1l-29.6-70.5
		c0.8-0.5,1.5-1.2,2-2c0.2-0.3,0.3-0.6,0.4-0.9l45.2,10.5C225.1,129,226.1,131.1,228,132.3z M183.3,374.3c-0.5-0.3-1.1-0.5-1.8-0.7
		l3.6-50.1c1.3-0.1,2.6-0.6,3.6-1.5l68.8,55.9c0,0,0,0.1-0.1,0.1c-0.4,0.6-0.6,1.3-0.7,2l-70.7-1.5
		C185.8,376.7,184.8,375.2,183.3,374.3z M378,299.1l-0.3-58.2c0.9-0.1,1.8-0.5,2.6-1l46.7,49.6c0,0.8,0,1.5,0.2,2.1
		c0.2,0.8,0.6,1.6,1.1,2.4c-0.2,0.6-0.2,1.2-0.2,1.7l-45.4,7.3c-0.4-1.4-1.3-2.5-2.5-3.2C379.6,299.4,378.8,299.1,378,299.1z
		 M380.7,208.8c0.2-0.5,0.3-1,0.3-1.5l44.9-2.2l2.7,29.2L380.7,208.8z M358.8,104.6c0.5-2.3-0.5-4.8-2.6-6c-1.7-1-3.9-1-5.6,0
		l-5.2-12.3c0.7-0.4,1.3-0.8,1.8-1.3l20,22.7L358.8,104.6z M225.6,125.5L180.4,115c0.2-2.2-0.8-4.3-2.7-5.4
		c-0.6-0.4-1.4-0.6-2.2-0.7l0-32.9l10.1-4.3l41.2,51.8c-0.4,0.3-0.6,0.7-0.8,1.1C225.9,124.9,225.7,125.2,225.6,125.5z M171.8,109.8
		l-0.5,0.4c-0.5,0.4-0.9,0.9-1.2,1.4c-0.6,1.1-0.9,2.3-0.7,3.5l-30.4,7.8c-0.3-0.6-0.7-1.2-1.1-1.7L167,79.8l7.3-3.1l0,32.3
		C173.4,109,172.6,109.3,171.8,109.8z M136.6,120.3c-0.9-0.5-2-0.8-3.1-0.7l-0.7,0.1c-0.4,0.1-0.9,0.2-1.3,0.4l-8.8-14.6
		c2.4-1.8,3.5-4.9,2.8-7.8l38.8-16.7L136.6,120.3z M62.4,203.2l39.4,6.9c-0.1,1.5,0.5,3,1.5,4.1l-24,46c-3-0.7-6.2,0.6-7.8,3.3
		c-1.4,2.3-1.3,5.1,0.1,7.3l-8.3,7.9c-0.4-0.4-0.8-0.7-1.2-0.9c-0.2-0.1-0.5-0.3-0.8-0.4l-6.1-65.3c0.6,0,1.2-0.1,1.7-0.2
		C60.8,211,63.2,207.1,62.4,203.2z M181.6,322.5c0.6,0.5,1.4,0.8,2.1,0.9l-3.6,50.1c-1.9,0.1-3.6,1.1-4.5,2.7
		c-0.5,0.9-0.8,1.9-0.8,3l-48.7,7.6c-0.2-0.8-0.6-1.5-1.1-2.1L181.6,322.5z M266.8,383.9c0.1-0.1,0.1-0.2,0.2-0.3
		c0.2-0.3,0.4-0.7,0.5-1.2l92,17l-50.2,21.7L290.8,405l0,0L266.8,383.9z M307.8,421.8l-39.1,16.9c-0.6-1.2-1.6-2.2-2.7-2.8
		c-0.9-0.5-1.9-0.9-3-1l0.8-48.7c0.7-0.2,1.4-0.6,2-1.2L307.8,421.8z M363.5,395.3l-56.9-71.7c0.3-0.3,0.6-0.7,0.8-1
		c0.6-1,0.8-2.1,0.7-3.3l63.9-13c0.6,1.8,2.1,3.2,4,3.6l-8.8,76.5l-0.5,4.4c-0.3,1-0.4,2-0.3,3l-0.1,0.6
		C365.3,394.5,364.4,394.8,363.5,395.3z M434.7,282.2l-3.3-35.2l8.7,1.8c0.5,1.6,1.6,2.9,3,3.8c0.3,0.2,0.7,0.4,1.1,0.5l-7.6,29.5
		C435.9,282.4,435.3,282.2,434.7,282.2z M379.7,203.4c-0.8-0.9-1.9-1.6-3.1-1.8l0.9-43.9c1.6-0.3,2.9-1.2,3.8-2.6
		c0.6-1,0.8-2.2,0.7-3.3l22.3-1.8l12.1,13.8c-1.4,1.8-1.9,4.2-1.3,6.4c0.2,0.9,0.6,1.7,1.1,2.4L379.7,203.4z M231.8,58.4l10.2,7.5
		l-10.8,55.9c-1.1-0.1-2.3,0.2-3.3,0.8l-41-51.5L219.7,57c1.6,3,5.1,4.5,8.4,3.6C229.5,60.3,230.8,59.5,231.8,58.4z M168.6,77.5
		l5.2-7.5c0.1,0.1,0.3,0.1,0.4,0.2l0,4.8L168.6,77.5z M175.6,70.7c2.7,0.7,5.5-0.3,7.3-2.5l1.8,2.3l-9.1,3.9L175.6,70.7z
		 M121.5,106.2l8.8,14.6c-0.1,0.1-0.2,0.2-0.3,0.3l-0.5,0.5l-0.1,0.1c-0.2,0.2-0.3,0.4-0.5,0.6c-0.4,0.6-0.6,1.3-0.7,2l0,0.7
		c0,1.6,0.6,3.1,1.7,4.2l-21.7,26.9c-0.4-0.3-1-0.6-1.6-0.8l10.8-48.4c0.9,0.1,1.8,0.1,2.7-0.2C120.6,106.6,121,106.5,121.5,106.2z
		 M99.5,167.2c0.4,0.4,0.8,0.7,1.2,0.9c0.6,0.4,1.4,0.7,2.2,0.8l3.3,36c-0.7,0.1-1.3,0.4-2,0.8l-0.5,0.4c-0.5,0.4-0.9,0.9-1.1,1.3
		c-0.2,0.4-0.4,0.7-0.5,1.2l-40.2-7.1c-0.2-0.5-0.4-0.9-0.7-1.2L99.5,167.2z M84.5,343l21.5,27.5l-23.9-27.2
		C82.9,343.4,83.7,343.3,84.5,343z M87.4,340.6c1.1-1.9,1-4.3-0.3-6.1l34.6-38c0.1,0.1,0.2,0.2,0.4,0.2c0.6,0.3,1.2,0.6,1.9,0.7
		l-3.6,85.3c-0.8,0.1-1.7,0.3-2.4,0.8l-32.2-41.2C86.4,341.9,87,341.3,87.4,340.6z M129.7,294.8
		C129.7,294.8,129.7,294.8,129.7,294.8l49.8,21.6c-0.5,1.8-0.1,3.8,1.1,5.2L124,383.8c-0.6-0.5-1.4-0.8-2.3-0.9l3.6-85.3
		C127.1,297.4,128.7,296.4,129.7,294.8z M432.2,182.2l-4.4-9.1c0.2-0.2,0.3-0.3,0.4-0.5L432.2,182.2z M380.9,205.9
		c-0.1-0.5-0.2-0.9-0.5-1.4l36.7-31.1c1.6,1.6,3.8,2.3,6.1,2.1l2.6,28.2L380.9,205.9z M417.5,162.5l-11.3-12.9l9.4-0.8
		c0.6,1.1,1.7,1.8,3,1.9l1.8,10.2C419.2,161.2,418.3,161.8,417.5,162.5z M396.2,126.3c2.2,1.3,4.8,1.3,7.1,0.1l12.8,18.4
		c-0.2,0.2-0.3,0.4-0.5,0.6c-0.4,0.6-0.5,1.3-0.5,2.1l-10.1,0.8l-33-37.6l21.1,7.6C392.2,121.4,393.5,124.7,396.2,126.3z
		 M243.6,65.3l0.1-0.7c0.2,0.2,0.4,0.3,0.6,0.4c2.5,1.5,5.6,1.3,7.9-0.5l10.1,14.6L243.6,65.3z M186,70l-2.4-3
		c0.6-1.2,0.8-2.6,0.7-3.9l34.7-7.4L186,70z M140.4,412.6l-7.1-8.9l7.4,8.4C140.6,412.3,140.5,412.5,140.4,412.6z M175.1,380.6
		c0.4,1.4,1.3,2.5,2.5,3.3c2.1,1.3,4.8,1,6.6-0.7l71.4,55.6c-0.2,0.3-0.3,0.6-0.4,0.9l-47.5-10.7l-81.5-39c0.2-0.6,0.3-1.3,0.3-1.9
		L175.1,380.6z M185.1,382.2c0.1-0.1,0.1-0.1,0.2-0.2c0.4-0.6,0.6-1.3,0.7-2l70.7,1.5c0.2,1.8,1.2,3.3,2.7,4.2
		c0.9,0.6,2,0.8,3.1,0.8l-0.8,48.4c-0.5,0-0.9,0.1-1.3,0.2c-1.6,0.4-3,1.4-4,2.7L185.1,382.2z M311.4,431l-42,9l39.6-17.1l3.7,3.2
		c-0.1,0.2-0.3,0.3-0.4,0.5C311.5,427.9,311.2,429.4,311.4,431z M368.5,388.1l8.9-77.9c1,0,1.9-0.3,2.7-0.7l12.6,16.6
		c-1.5,3.3-0.2,7.2,2.8,9c1.4,0.8,3.1,1.1,4.7,0.9l3.7,4.9l-27,45.6c-1.6-0.7-3.4-0.9-5-0.5C370.7,386.4,369.5,387.1,368.5,388.1z
		 M405.4,332.6c2-3.4,0.9-7.8-2.5-9.8c-3.2-1.9-7.2-1-9.4,1.9l-12.2-16.1c0.4-0.4,0.7-0.7,0.9-1.1c0.5-0.9,0.8-2,0.8-3l45.4-7.3
		c0.2,0.6,0.4,1.1,0.7,1.6l-24.3,41l-3-4C403.3,335,404.6,333.9,405.4,332.6z M442.2,241.4l-11.9-6.3l-2.8-30.1l10.6-0.5
		c0.2,1,0.9,1.9,1.8,2.5c0.5,0.3,1.1,0.5,1.7,0.5l3.5,32.4C444.1,240.1,443,240.7,442.2,241.4z M62.5,289.9c0.9-0.6,1.6-1.4,2.1-2.2
		c1.4-2.4,1.3-5.5-0.3-7.8l8.2-7.9c0.5,0.5,1,0.9,1.5,1.3c3.2,1.9,7.3,1,9.5-2l35.8,20.9c0,1.3,0.5,2.5,1.3,3.4l-34.5,37.9
		c-0.2-0.2-0.5-0.4-0.8-0.5c-2.1-1.2-4.8-0.9-6.7,0.8l-0.5,0.6c-0.2,0.2-0.3,0.4-0.5,0.6c-0.2,0.4-0.4,0.8-0.6,1.4L77,337
		c0,0.2,0,0.4,0,0.6l-5.8-6.6c1.5-1.8,2-4.2,1.4-6.5c-0.9-3.4-3.9-5.7-7.4-5.6L62.5,289.9z M405,342.1l3.2,4.3
		c-0.9,0.6-1.7,1.4-2.2,2.3c-1.4,2.4-1.3,5.5,0.3,7.8L379.6,385L405,342.1z M405.8,340.9l24.4-41.1c0.3,0.3,0.6,0.5,1,0.6l-17.2,45
		c-1.5-0.4-3-0.2-4.4,0.3L405.8,340.9z M415.2,345.8l17.2-44.9c2.4,0.6,4.9-0.4,6.1-2.6c0.2-0.3,0.3-0.6,0.5-1l0-0.1l-0.4-1.3
		c2.7-1.8,3.9-5,3.1-8c-0.2-0.8-0.6-1.6-1.1-2.4l19.2-17.1c0.3,0.2,0.5,0.5,0.8,0.7L415.2,345.8z M421.7,160.7l-1.2-7l2.9,7
		C422.8,160.7,422.3,160.6,421.7,160.7z M343.7,86.9c0.1,0,0.2-0.1,0.4-0.1l5.4,12.7c-0.4,0.3-0.6,0.7-0.9,1.1
		c-0.4,0.7-0.7,1.6-0.7,2.5l-56.1-6.7l-0.3-0.3c0-2.5-1.3-4.7-3.5-6c-1.2-0.7-2.5-1-3.9-1l-29.3-27.8c0-0.1,0.1-0.3,0.1-0.4
		l79.7,17.9c-0.2,1-0.1,2,0.1,3C335.6,85.5,339.7,87.9,343.7,86.9z M93.8,139l7.1,16.8c-1.1,0.6-2,1.5-2.7,2.6
		c-1.4,2.4-1.3,5.4,0.3,7.7l-38.3,33.3c-0.4-0.4-0.9-0.8-1.4-1c0,0-0.1,0-0.1-0.1L93.8,139z M145.1,408.9c-1.3,0.3-2.5,1-3.5,2
		l-16.6-18.9c0.2-0.2,0.4-0.5,0.5-0.7l76,36.3l-47.2-10.6c0.1-1,0.1-1.9-0.2-2.8c-0.5-1.9-1.7-3.6-3.4-4.6c0,0,0,0,0,0
		C149,408.7,147,408.4,145.1,408.9z M213.6,431.9l41.2,9.3c-0.1,0.4-0.1,0.9-0.1,1.3l-9.6,0.9c-0.4-2-1.6-3.7-3.3-4.7
		c-3.2-1.9-7.4-1-9.5,2.1L213.6,431.9z M313.6,425l-3.2-2.8l50.4-21.8c0,0.7,0.2,1.3,0.5,1.9l-37.6,23.1c-0.5-0.6-1.1-1-1.7-1.4
		C319.3,422.5,315.9,422.9,313.6,425z M363.1,404.5c0.1,0.1,0.3,0.2,0.5,0.3c0.9,0.6,2,0.8,3.2,0.7l0.1,0l0.1-0.1
		c1.4-1,2.9-2.2,4.6-3.6l0.1-0.1l0-0.1c0.1-0.4,0.2-0.9,0.3-1.4c1.2,0.3,2.5,0.3,3.7,0c3.1-0.8,5.3-3.4,5.6-6.6l27.1-3
		c0.1,0.4,0.3,0.9,0.5,1.2L312,453.5c0,0-0.1-0.1-0.1-0.1L363.1,404.5z M409.2,384.3c-0.9,1.5-1.3,3.3-1.1,5.1l-26.8,3
		c0-0.4-0.1-0.7-0.2-1c-0.3-1.4-1.1-2.6-2.2-3.6l28.4-30.3c0.4,0.4,0.8,0.7,1.3,1c1.1,0.7,2.4,1,3.7,1l2.4,20.9
		C412.3,380.9,410.4,382.3,409.2,384.3z M439.7,284.3c-0.4-0.4-0.9-0.7-1.4-1c-0.1-0.1-0.2-0.1-0.4-0.2l7.7-29.7
		c2.8,0.4,5.5-0.9,6.9-3.3c1.9-3.3,0.9-7.5-2.4-9.5c-1.1-0.6-2.3-1-3.5-1l-3.3-30.6l18.4,46c-1.4,0.7-2.6,1.8-3.4,3.1
		c-1.7,2.8-1.5,6.4,0.5,9.1L439.7,284.3z M462,251.9l-18-45c0.5-0.3,1-0.8,1.3-1.3c1.2-2,0.4-4.7-1.9-5.6l-9.5-58.1L462,251.9z
		 M441.1,199.8L429.2,171c0.7-1.5,0.8-3.2,0.4-4.7c-0.6-2.3-2.2-4.2-4.4-5.1l-4.6-11.1c0.4-0.3,0.8-0.7,1-1.1
		c0.7-1.2,0.6-2.7-0.2-3.9l4.8-5.5c0.5,0.4,0.9,0.8,1.4,1.1c1.4,0.9,3.1,1.2,4.8,1.1l9.5,57.8C441.6,199.7,441.3,199.7,441.1,199.8z
		 M420.3,144.1c-0.7-0.4-1.5-0.5-2.3-0.4l-1.3-3.1l0.6,3.3c0,0,0,0,0,0l-12.8-18.4c0.6-0.5,1.1-1.1,1.5-1.8c0.2-0.4,0.4-0.8,0.6-1.2
		l17.5,8.2c-1,2.6-0.5,5.5,1.1,7.8L420.3,144.1z M424.7,129.5l-17.7-8.3c0.4-2.9-0.9-5.6-3.4-7.1c-3.4-2-7.8-0.9-9.8,2.5
		c-0.1,0.2-0.2,0.3-0.2,0.5l-23.4-8.4l-21.9-24.9c1.1-1.8,1.5-3.9,1-5.9c-1-4-5.1-6.4-9.1-5.4c-0.1,0-0.2,0.1-0.4,0.1l-7.7-18.3
		c0.6-0.4,1.1-0.9,1.5-1.5l91.7,76C425,129,424.8,129.2,424.7,129.5C424.7,129.4,424.7,129.5,424.7,129.5z M334.9,77.1l-79.8-17.9
		c0.1-2.6-1.2-5.2-3.5-6.5c-3.4-2-7.8-0.9-9.8,2.5c-0.2,0.3-0.3,0.6-0.5,1l-7.7-1.7c0.1-1,0.1-1.9-0.2-2.8c-0.5-1.9-1.7-3.6-3.4-4.6
		c-1.7-1-3.7-1.3-5.7-0.8c-2.1,0.5-3.9,2-4.8,4l-17.3-6.5c0.2-0.8,0.3-1.6,0.3-2.3l116.1,7.4c0.3,2.5,1.8,4.8,4,6.1
		c2.4,1.4,5.4,1.5,7.9,0.2l7.7,18.1C336.7,74,335.5,75.4,334.9,77.1z M111.5,102.6c0.3,0.6,0.7,1.2,1.1,1.7l-18.6,31.4l-7.1-16.8
		c1.4-0.7,2.5-1.8,3.2-3.1c1.1-1.9,1.4-4.1,0.9-6.2L111.5,102.6z M51.3,211.2c0.8,0.4,1.6,0.8,2.5,0.9l6.1,64.9
		c-1.5-0.3-3-0.1-4.4,0.6l-16.7-38.1c1.2-0.7,2.2-1.7,2.9-2.9c2-3.4,1.3-7.6-1.5-10.3L51.3,211.2z M37.4,240.2l16.7,38.2
		c-0.7,0.6-1.4,1.2-1.8,2c-2,3.4-0.9,7.8,2.5,9.8c1.9,1.1,4.2,1.3,6.3,0.5l2.7,28.4c-0.1,0-0.2,0-0.2,0c-1.9,0.5-3.6,1.7-4.6,3.4
		c-1,1.7-1.3,3.7-0.8,5.7c0.8,3.1,3.6,5.4,6.8,5.6l0.8,22.9c-0.2,0-0.4,0.1-0.6,0.1L35.5,240.7C36.1,240.6,36.8,240.4,37.4,240.2z
		 M67.2,333.6c1.1-0.3,2-0.8,2.9-1.5l7.7,8.7c0.3,0.5,0.7,1,1.1,1.3l37.6,42.7c-0.2,0.3-0.4,0.5-0.6,0.8c-0.1,0.1-0.1,0.2-0.2,0.4
		L75,368.1c1.8-3.8,0.4-8.4-3.3-10.5c-1.4-0.8-2.9-1.2-4.5-1.1l-0.8-22.7C66.7,333.7,66.9,333.6,67.2,333.6z M74.3,369.4l41,17.9
		c-0.3,1.5,0,3,0.9,4.3l0.5,0.5c0.4,0.4,0.8,0.8,1.2,1.1l0.1,0c1.6,0.9,3.5,1,5.1,0.2l16.7,20.8c-0.4,1.3-0.4,2.6-0.1,3.8
		c0.9,3.5,4.1,5.8,7.6,5.6l18,22.4c-0.1,0.1-0.2,0.2-0.3,0.3l-91.6-75.9C73.7,370.1,74,369.7,74.3,369.4z M154,418.5l53.5,12
		l24.1,11.5c-0.4,0.9-0.6,1.8-0.6,2.7l-52.2,4.9c-0.6-2-1.9-3.7-3.7-4.8c-2.5-1.5-5.6-1.5-8.2-0.1l-15.3-22.8
		C152.7,421,153.5,419.9,154,418.5z M231.2,446.3c0.4,2,1.6,3.7,3.3,4.8c3.4,2,7.8,0.9,9.8-2.5c0.6-1.1,1-2.3,1-3.6l9.6-0.9
		c0,0,0,0.1,0,0.1c0.5,1.9,1.7,3.6,3.4,4.6c0,0,0,0,0,0c1.7,1,3.7,1.3,5.7,0.8c2.1-0.5,3.9-2,4.8-3.9l28.5,11.4
		c-0.1,0.6-0.1,1.1-0.1,1.7l-118-7.5L231.2,446.3z M324.6,433.9c1.3-2.2,1.3-5,0-7.3l37.2-22.9l-50.9,48.5c-0.4-0.3-0.8-0.6-1.2-0.9
		c0,0-0.1,0-0.1-0.1l6.6-14.4C319.3,438.1,322.8,436.8,324.6,433.9z M418.3,356c1.4-2.3,1.3-5.2-0.1-7.5l0.5-0.3l0.2-0.3
		c0.1-0.2,0.2-0.3,0.3-0.5c0.1-0.2,0.2-0.3,0.3-0.4l0.7-1.2l-2.8,1.6c-0.3-0.3-0.6-0.5-0.9-0.8l45.5-76.7c0.2,0.1,0.4,0.2,0.6,0.3
		l-43.9,110.5c-0.8-0.2-1.7-0.4-2.6-0.3l-2.4-21C415.7,358.9,417.3,357.7,418.3,356z"/>
</g>
<g>
	<path class="st1" d="M71.5,218.3H87v67H71.5V218.3z"/>
	<path class="st1" d="M116.8,230.9H95.3v-12.6h58.4v12.6h-21.5v54.4h-15.5V230.9z"/>
	<path class="st1" d="M202.9,271h-31.1l-5.9,14.4h-15.9l29.9-67h15.3l30,67h-16.3L202.9,271z M198,259.2l-10.6-25.7l-10.6,25.7H198z
		"/>
	<path class="st1" d="M232.1,218.3h30.5c7.3,0,13.7,1.4,19.3,4.2c5.6,2.8,9.9,6.7,13,11.7c3.1,5,4.6,10.9,4.6,17.6
		c0,6.7-1.5,12.6-4.6,17.6c-3.1,5-7.4,9-13,11.7c-5.6,2.8-12,4.2-19.3,4.2h-30.5V218.3z M261.8,272.6c6.7,0,12-1.9,16-5.6
		c4-3.7,6-8.8,6-15.2c0-6.4-2-11.4-6-15.2c-4-3.7-9.3-5.6-16-5.6h-14.2v41.6H261.8z"/>
	<path class="st2" d="M321.1,216.1c1.7,1.7,2.6,3.9,2.6,6.7c0,1.3-0.2,2.6-0.5,3.8c-0.3,1.3-1,3.2-2,5.7l-5.6,13.8h-9.5l4.1-15.1
		c-1.6-0.7-2.8-1.8-3.7-3.2c-0.9-1.4-1.3-3.1-1.3-5.1c0-2.7,0.9-5,2.6-6.7c1.8-1.7,4-2.5,6.7-2.5
		C317.1,213.5,319.3,214.4,321.1,216.1z"/>
	<path class="st2" d="M360.7,218.3v67h-15.5v-54.6h-13.4v-12.4H360.7z"/>
	<path class="st2" d="M425.9,256.6c1.8,2.7,2.6,5.8,2.6,9.3c0,4.2-1.2,7.8-3.5,10.9c-2.4,3.1-5.7,5.5-10,7.2
		c-4.3,1.7-9.2,2.5-14.8,2.5c-5.6,0-10.6-0.8-14.8-2.5c-4.2-1.7-7.5-4.1-9.9-7.2c-2.3-3.1-3.5-6.7-3.5-10.9c0-3.5,0.9-6.6,2.6-9.3
		c1.8-2.7,4.3-4.9,7.5-6.5c-2.5-1.5-4.4-3.5-5.7-5.8c-1.3-2.3-2-5-2-8c0-3.9,1.1-7.3,3.3-10.2c2.2-2.9,5.2-5.1,9.1-6.7
		c3.9-1.6,8.4-2.3,13.4-2.3c5.1,0,9.6,0.8,13.6,2.3c3.9,1.6,7,3.8,9.1,6.7c2.2,2.9,3.3,6.3,3.3,10.2c0,3-0.7,5.7-2,8
		c-1.3,2.3-3.3,4.3-5.8,5.8C421.6,251.8,424.1,253.9,425.9,256.6z M409.4,272.5c2.3-1.8,3.4-4.1,3.4-7c0-2.9-1.1-5.3-3.4-7
		c-2.3-1.7-5.3-2.6-9.2-2.6c-3.8,0-6.9,0.9-9.1,2.6c-2.2,1.7-3.4,4.1-3.4,7c0,3,1.1,5.4,3.4,7.1c2.2,1.7,5.3,2.6,9.1,2.6
		C404.1,275.1,407.1,274.2,409.4,272.5z M392.6,230.8c-1.9,1.5-2.8,3.6-2.8,6.2c0,2.6,0.9,4.6,2.8,6c1.9,1.5,4.4,2.2,7.6,2.2
		c3.2,0,5.7-0.7,7.7-2.2c1.9-1.5,2.9-3.5,2.9-6c0-2.6-1-4.7-2.9-6.2c-1.9-1.5-4.5-2.3-7.7-2.3C397,228.5,394.5,229.3,392.6,230.8z"
		/>
</g>
</svg>
